<svg xmlns="http://www.w3.org/2000/svg" width="34" height="46" viewBox="0 0 34 46" shape-rendering="crispEdges"><rect x="7" y="42" width="19" height="3" fill="#253b4c"/><rect x="9" y="33" width="6" height="10" fill="#41637c"/><rect x="19" y="33" width="6" height="10" fill="#41637c"/><rect x="7" y="23" width="20" height="13" fill="#59a58d"/><rect x="4" y="24" width="5" height="11" fill="#f5c798"/><rect x="26" y="24" width="5" height="11" fill="#f5c798"/><rect x="10" y="21" width="14" height="8" fill="#f5c798"/><rect x="8" y="5" width="18" height="18" fill="#643c33"/><rect x="9" y="8" width="17" height="15" fill="#f5c798"/><rect x="12" y="22" width="11" height="2" fill="#dba785"/><rect x="12" y="13" width="3" height="4" fill="#293747"/><rect x="21" y="13" width="3" height="4" fill="#293747"/><rect x="17" y="20" width="5" height="1" fill="#a76a59"/><rect x="9" y="8" width="3" height="6" fill="#643c33"/><rect x="8" y="3" width="18" height="6" fill="#643c33"/><rect x="5" y="6" width="6" height="23" fill="#643c33"/><rect x="25" y="7" width="5" height="23" fill="#643c33"/><rect x="7" y="5" width="21" height="3" fill="#edc468"/><rect x="13" y="28" width="9" height="6" fill="#f2efd4"/></svg>